{"title":"Manny Pacquiao vs David Diaz(HBO)(720pMKV)-desspratt-","uid":9923269,"size":1565001759,"categoryP":"video","categoryS":"hd___tv_shows","magnet":"?xt=urn:btih:724f27820352ce8925fca16f34a7d03e0ec35ec6&amp;dn=Manny+Pacquiao+vs+David+Diaz%28HBO%29%28720pMKV%29-desspratt-&amp;tr=udp%3A%2F%2Ftracker.openbittorrent.com%3A80&amp;tr=udp%3A%2F%2Fopen.demonii.com%3A1337&amp;tr=udp%3A%2F%2Ftracker.coppersurfer.tk%3A6969&amp;tr=udp%3A%2F%2Fexodus.desync.com%3A6969","seeders":1,"leechers":0,"uploader":"desspratt","files":1,"time":1397024112,"description":"Jun 2008  Mandalay Bay Resort &amp; Casino, Las Vegas, Nevada, United States . \nThis is a MKV version of the HBO PPV broadcast of the fight between Manny Pacquiao and David Diaz.\nIncludes fighter entrances \nIncludes fighter introductions \nIncludes all in between rounds \nIncludes post fight interview(s)  \n\n\n\nPacquiao moves up in weight to take on the champ. The champion was a former olympian.\n\n\n\n\n\n\n[URL=https://imageshack.com/i/mvclkbj][IMG]http://imagizer.imageshack.us/v2/1024x768q90/823/clkb.jpg[/IMG][/URL]\n[URL=https://imageshack.com/i/gvxce7j][IMG]http://imagizer.imageshack.us/v2/1024x768q90/607/xce7.jpg[/IMG][/URL]\n[URL=https://imageshack.com/i/3ofsw7j][IMG]http://imagizer.imageshack.us/v2/1024x768q90/132/fsw7.jpg[/IMG][/URL]\n______________________________________________________________________________________________________________________________________________________________________________________________________\n\nManny Pacquiao vs David Diaz..M2TS.mkv\nFormat                                   : Matroska\nFormat version                           : Version 1\nFile size                                : 1.46 GiB\nDuration                                 : 1h 6mn\nOverall bit rate                         : 3 150 Kbps\nEncoded date                             : UTC 2008-06-29 16:53:02\nWriting application                      : mkvmerge v2.1.0 ('Another Place To Fall') built on Aug 19 2007 13:40:07\nWriting library                          : libebml v0.7.7 + libmatroska v0.8.1\n\nVideo\nID                                       : 1\nFormat                                   : AVC\nFormat/Info                              : Advanced Video Codec\nFormat profile                           : &lt;a class=&quot;__cf_email__&quot; href=&quot;/cdn-cgi/l/email-protection&quot; data-cfemail=&quot;d59dbcb2bd9599e0fbe4&quot;&gt;[email&amp;#160;protected]&lt;/a&gt;&lt;script cf-hash='f9e31' type=&quot;text/javascript&quot;&gt;\n/* &lt;![CDATA[ */!function(){try{var t=&quot;currentScript&quot;in document?document.currentScript:function(){for(var t=document.getElementsByTagName(&quot;script&quot;),e=t.length;e--;)if(t[e].getAttribute(&quot;cf-hash&quot;))return t[e]}();if(t&amp;&amp;t.previousSibling){var e,r,n,i,c=t.previousSibling,a=c.getAttribute(&quot;data-cfemail&quot;);if(a){for(e=&quot;&quot;,r=parseInt(a.substr(0,2),16),n=2;a.length-n;n+=2)i=parseInt(a.substr(n,2),16)^r,e+=String.fromCharCode(i);e=document.createTextNode(e),c.parentNode.replaceChild(e,c)}}}catch(u){}}();/* ]]&gt; */&lt;/script&gt;\nFormat settings, CABAC                   : Yes\nFormat settings, ReFrames                : 5 frames\nCodec ID                                 : V_MPEG4/ISO/AVC\nDuration                                 : 1h 6mn\nBit rate                                 : 2 762 Kbps\nWidth                                    : 1 280 pixels\nHeight                                   : 720 pixels\nDisplay aspect ratio                     : 16:9\nFrame rate mode                          : Constant\nFrame rate                               : 29.970 fps\nColor space                              : YUV\nChroma subsampling                       : 4:2:0\nBit depth                                : 8 bits\nScan type                                : Progressive\nBits/(Pixel*Frame)                       : 0.100\nStream size                              : 1.25 GiB (86%)\nWriting library                          : x264 core 60 r886M 1075536\nEncoding settings                        : cabac=1 / ref=5 / deblock=1:0:0 / analyse=0x3:0x133 / me=umh / subme=7 / rdcmp=psy / brdo=1 / mixed_ref=1 / me_range=16 / chroma_me=1 / trellis=1 / 8x8dct=1 / cqm=1 / deadzone=21,11 / chroma_qp_offset=0 / threads=6 / nr=0 / decimate=1 / mbaff=0 / bframes=3 / b_pyramid=1 / b_adapt=1 / b_bias=0 / direct=3 / wpredb=1 / bime=1 / keyint=300 / keyint_min=30 / scenecut=40(pre) / rc=2pass / bitrate=2762 / ratetol=1.0 / rceq='blurCplx^(1-qComp)' / qcomp=1.00 / qpmin=10 / qpmax=51 / qpstep=4 / cplxblur=20.0 / qblur=0.5 / ip_ratio=1.40 / pb_ratio=1.30 / aq=2:1.00\nLanguage                                 : English\nDefault                                  : Yes\nForced                                   : No\n\nAudio\nID                                       : 2\nFormat                                   : AC-3\nFormat/Info                              : Audio Coding 3\nMode extension                           : CM (complete main)\nFormat settings, Endianness              : Big\nCodec ID                                 : A_AC3\nDuration                                 : 1h 6mn\nBit rate mode                            : Constant\nBit rate                                 : 384 Kbps\nChannel(s)                               : 2 channels\nChannel positions                        : Front: L R\nSampling rate                            : 48.0 KHz\nBit depth                                : 16 bits\nCompression mode                         : Lossy\nStream size                              : 182 MiB (12%)\nDefault                                  : Yes\nForced                                   : No\n\n\n\n\n\n\n\n\n &lt;a href=&quot;\nhttp://imagizer.imageshack.us/v2/1024x768q90/823/clkb.jpg&quot; rel=&quot;nofollow&quot; target=&quot;_NEW&quot;&gt;\nhttp://imagizer.imageshack.us/v2/1024x768q90/823/clkb.jpg&lt;/a&gt; &lt;a href=&quot;\nhttp://imagizer.imageshack.us/v2/1024x768q90/607/xce7.jpg&quot; rel=&quot;nofollow&quot; target=&quot;_NEW&quot;&gt;\nhttp://imagizer.imageshack.us/v2/1024x768q90/607/xce7.jpg&lt;/a&gt; &lt;a href=&quot;\nhttp://imagizer.imageshack.us/v2/1024x768q90/132/fsw7.jpg&quot; rel=&quot;nofollow&quot; target=&quot;_NEW&quot;&gt;\nhttp://imagizer.imageshack.us/v2/1024x768q90/132/fsw7.jpg&lt;/a&gt;","torrent":{"xt":"urn:btih:724f27820352ce8925fca16f34a7d03e0ec35ec6","amp;dn":"Manny+Pacquiao+vs+David+Diaz%28HBO%29%28720pMKV%29-desspratt-","amp;tr":["udp%3A%2F%2Ftracker.openbittorrent.com%3A80","udp%3A%2F%2Fopen.demonii.com%3A1337","udp%3A%2F%2Ftracker.coppersurfer.tk%3A6969","udp%3A%2F%2Fexodus.desync.com%3A6969"],"infoHash":"724f27820352ce8925fca16f34a7d03e0ec35ec6","infoHashBuffer":{"type":"Buffer","data":[114,79,39,130,3,82,206,137,37,252,161,111,52,167,208,62,14,195,94,198]},"announce":[],"urlList":[]}}